<mxfile host="app.diagrams.net" modified="2024-02-05T06:32:56.741Z" agent="Mozilla/5.0 (Windows NT 10.0; Win64; x64) AppleWebKit/537.36 (KHTML, like Gecko) Chrome/121.0.0.0 Safari/537.36" version="23.0.2" etag="Jqu7tutZsHkCjTmNmqT5" type="github">
  <diagram name="Page-1" id="Hgi64ilWmY-o-Izg-f-Q">
    <mxGraphModel>
      <root>
        <mxCell id="0" />
        <mxCell id="1" parent="0" />
      </root>
    </mxGraphModel>
  </diagram>
</mxfile>
